<?xml version="1.0" encoding="utf-8"?>
<!-- Generator: Adobe Illustrator 15.0.0, SVG Export Plug-In . SVG Version: 6.00 Build 0)  -->
<!DOCTYPE svg PUBLIC "-//W3C//DTD SVG 1.1//EN" "http://www.w3.org/Graphics/SVG/1.1/DTD/svg11.dtd">
<svg version="1.1" id="Layer_1" xmlns="http://www.w3.org/2000/svg" xmlns:xlink="http://www.w3.org/1999/xlink" x="0px" y="0px"
	 width="612px" height="792px" viewBox="0 0 612 792" enable-background="new 0 0 612 792" xml:space="preserve">
<rect x="127.774" y="430.229" fill="#FFFFFF" stroke="#000000" width="221.103" height="96.378"/>
<g>
	<path d="M168.299,488h-3.488v-2.301c-1.175,0.928-2.301,1.639-3.377,2.134s-2.264,0.742-3.563,0.742
		c-2.177,0-3.872-0.665-5.084-1.995c-1.212-1.329-1.818-3.28-1.818-5.854v-13.452h3.488v11.801c0,1.052,0.049,1.952,0.148,2.7
		c0.099,0.748,0.309,1.389,0.631,1.92c0.334,0.545,0.767,0.94,1.299,1.188c0.532,0.248,1.305,0.371,2.319,0.371
		c0.903,0,1.889-0.234,2.959-0.705c1.07-0.47,2.069-1.07,2.997-1.8v-15.475h3.488V488z"/>
	<path d="M188.097,471.078h-0.186c-0.52-0.123-1.024-0.213-1.512-0.27c-0.489-0.055-1.067-0.083-1.735-0.083
		c-1.076,0-2.115,0.238-3.117,0.714c-1.002,0.477-1.967,1.092-2.895,1.847V488h-3.488v-20.726h3.488v3.062
		c1.385-1.113,2.607-1.902,3.665-2.365c1.058-0.465,2.137-0.696,3.238-0.696c0.606,0,1.045,0.016,1.317,0.046
		c0.272,0.031,0.68,0.09,1.225,0.177V471.078z"/>
	<path d="M206.818,488h-3.47v-2.208c-0.31,0.21-0.727,0.505-1.252,0.882c-0.526,0.377-1.036,0.677-1.531,0.899
		c-0.582,0.284-1.25,0.522-2.004,0.714c-0.755,0.191-1.639,0.288-2.653,0.288c-1.868,0-3.451-0.618-4.75-1.855
		s-1.948-2.813-1.948-4.731c0-1.57,0.337-2.842,1.011-3.813c0.674-0.971,1.636-1.735,2.885-2.292
		c1.262-0.557,2.777-0.934,4.546-1.132c1.769-0.197,3.667-0.346,5.696-0.445v-0.538c0-0.792-0.139-1.447-0.417-1.967
		s-0.677-0.928-1.197-1.225c-0.495-0.284-1.089-0.476-1.781-0.575c-0.693-0.099-1.417-0.148-2.171-0.148
		c-0.916,0-1.936,0.121-3.062,0.361c-1.126,0.242-2.289,0.592-3.488,1.049h-0.186v-3.544c0.68-0.186,1.664-0.39,2.95-0.612
		c1.286-0.223,2.554-0.334,3.804-0.334c1.459,0,2.73,0.121,3.813,0.361c1.082,0.242,2.019,0.653,2.811,1.234
		c0.779,0.569,1.373,1.305,1.781,2.208s0.612,2.022,0.612,3.358V488z M203.349,482.897v-5.771c-1.064,0.063-2.316,0.154-3.757,0.278
		c-1.441,0.124-2.583,0.304-3.423,0.538c-1.002,0.285-1.813,0.727-2.431,1.326c-0.619,0.601-0.928,1.426-0.928,2.478
		c0,1.188,0.358,2.081,1.076,2.681c0.717,0.601,1.812,0.9,3.284,0.9c1.225,0,2.344-0.238,3.358-0.715
		C201.542,484.138,202.482,483.565,203.349,482.897z"/>
	<path d="M224.297,487.814c-0.656,0.174-1.37,0.315-2.143,0.427c-0.773,0.111-1.463,0.167-2.069,0.167
		c-2.115,0-3.724-0.568-4.824-1.707c-1.101-1.138-1.651-2.963-1.651-5.474v-11.021h-2.356v-2.932h2.356v-5.956h3.488v5.956h7.199
		v2.932h-7.199v9.444c0,1.089,0.024,1.939,0.074,2.551c0.049,0.613,0.223,1.186,0.52,1.717c0.272,0.495,0.646,0.857,1.123,1.086
		c0.476,0.229,1.203,0.343,2.18,0.343c0.569,0,1.163-0.083,1.781-0.251c0.618-0.166,1.063-0.306,1.336-0.417h0.186V487.814z"/>
	<path d="M232.257,463.805h-3.934v-3.618h3.934V463.805z M232.034,488h-3.488v-20.726h3.488V488z"/>
	<path d="M256.601,477.646c0,3.377-0.866,6.043-2.598,7.997c-1.732,1.954-4.051,2.932-6.958,2.932c-2.932,0-5.26-0.978-6.986-2.932
		s-2.588-4.62-2.588-7.997s0.863-6.045,2.588-8.006s4.054-2.941,6.986-2.941c2.907,0,5.226,0.98,6.958,2.941
		C255.734,471.602,256.601,474.27,256.601,477.646z M253.001,477.646c0-2.684-0.526-4.679-1.577-5.984
		c-1.052-1.305-2.511-1.957-4.379-1.957c-1.893,0-3.362,0.652-4.407,1.957c-1.045,1.306-1.568,3.301-1.568,5.984
		c0,2.598,0.525,4.568,1.577,5.91c1.051,1.342,2.517,2.013,4.397,2.013c1.855,0,3.312-0.665,4.37-1.995
		C252.472,482.245,253.001,480.27,253.001,477.646z"/>
	<path d="M279.33,488h-3.488v-11.801c0-0.952-0.056-1.846-0.167-2.682c-0.111-0.834-0.315-1.486-0.612-1.957
		c-0.31-0.52-0.755-0.906-1.336-1.16c-0.582-0.253-1.336-0.38-2.264-0.38c-0.953,0-1.948,0.235-2.987,0.705s-2.035,1.07-2.987,1.8
		V488H262v-20.726h3.488v2.301c1.088-0.903,2.214-1.608,3.377-2.115c1.163-0.507,2.356-0.761,3.581-0.761
		c2.239,0,3.946,0.674,5.121,2.022c1.175,1.349,1.763,3.29,1.763,5.826V488z"/>
</g>
<g>
	<path d="M200.843,511.305c-1.934,0.844-3.683,1.635-5.247,2.373c-1.565,0.738-3.612,1.512-6.144,2.32
		c-2.145,0.668-4.474,1.239-6.987,1.714c-2.514,0.475-5.283,0.712-8.306,0.712c-5.695,0-10.873-0.801-15.53-2.399
		c-4.659-1.599-8.71-4.104-12.155-7.515c-3.375-3.34-6.012-7.584-7.91-12.735c-1.898-5.149-2.848-11.136-2.848-17.956
		c0-6.469,0.914-12.252,2.742-17.35c1.828-5.098,4.464-9.404,7.91-12.92c3.339-3.41,7.374-6.012,12.103-7.805
		c4.728-1.793,9.975-2.689,15.741-2.689c4.219,0,8.428,0.51,12.63,1.529c4.201,1.02,8.868,2.813,14.001,5.379v12.393h-0.791
		c-4.324-3.621-8.614-6.258-12.867-7.91c-4.254-1.652-8.807-2.479-13.658-2.479c-3.973,0-7.55,0.643-10.731,1.925
		c-3.182,1.284-6.021,3.278-8.517,5.985c-2.426,2.637-4.316,5.969-5.669,9.993c-1.354,4.026-2.03,8.675-2.03,13.948
		c0,5.52,0.747,10.266,2.241,14.238c1.494,3.973,3.418,7.207,5.774,9.703c2.46,2.602,5.334,4.527,8.622,5.774
		c3.287,1.249,6.758,1.872,10.415,1.872c5.027,0,9.738-0.861,14.133-2.584c4.394-1.723,8.507-4.307,12.34-7.752h0.738V511.305z"/>
	<path d="M231.312,504.367h-19.289c0,1.609,0.242,3.012,0.727,4.207s1.148,2.176,1.992,2.941c0.813,0.75,1.777,1.313,2.895,1.688
		s2.348,0.563,3.691,0.563c1.781,0,3.574-0.355,5.379-1.066s3.09-1.41,3.855-2.098h0.234v4.805c-1.484,0.625-3,1.148-4.547,1.57
		s-3.172,0.633-4.875,0.633c-4.344,0-7.734-1.176-10.172-3.527s-3.656-5.691-3.656-10.02c0-4.281,1.168-7.68,3.504-10.195
		s5.41-3.773,9.223-3.773c3.531,0,6.254,1.031,8.168,3.094s2.871,4.992,2.871,8.789V504.367z M227.022,500.992
		c-0.016-2.313-0.598-4.102-1.746-5.367s-2.895-1.898-5.238-1.898c-2.359,0-4.238,0.695-5.637,2.086s-2.191,3.117-2.379,5.18
		H227.022z"/>
	<path d="M259.882,517h-4.406v-14.906c0-1.203-0.07-2.332-0.211-3.387s-0.398-1.879-0.773-2.473
		c-0.391-0.656-0.953-1.145-1.688-1.465s-1.688-0.48-2.859-0.48c-1.203,0-2.461,0.297-3.773,0.891s-2.57,1.352-3.773,2.273V517
		h-4.406v-26.18h4.406v2.906c1.375-1.141,2.797-2.031,4.266-2.672s2.977-0.961,4.523-0.961c2.828,0,4.984,0.852,6.469,2.555
		s2.227,4.156,2.227,7.359V517z"/>
	<path d="M281.96,516.766c-0.828,0.219-1.73,0.398-2.707,0.539s-1.848,0.211-2.613,0.211c-2.672,0-4.703-0.719-6.094-2.156
		s-2.086-3.742-2.086-6.914v-13.922h-2.977v-3.703h2.977v-7.523h4.406v7.523h9.094v3.703h-9.094v11.93
		c0,1.375,0.031,2.449,0.094,3.223s0.281,1.496,0.656,2.168c0.344,0.625,0.816,1.082,1.418,1.371s1.52,0.434,2.754,0.434
		c0.719,0,1.469-0.105,2.25-0.316s1.344-0.387,1.688-0.527h0.234V516.766z"/>
	<path d="M303.616,495.625h-0.234c-0.656-0.156-1.293-0.27-1.91-0.34s-1.348-0.105-2.191-0.105c-1.359,0-2.672,0.301-3.938,0.902
		s-2.484,1.379-3.656,2.332V517h-4.406v-26.18h4.406v3.867c1.75-1.406,3.293-2.402,4.629-2.988s2.699-0.879,4.09-0.879
		c0.766,0,1.32,0.02,1.664,0.059s0.859,0.113,1.547,0.223V495.625z"/>
	<path d="M327.265,517h-4.383v-2.789c-0.391,0.266-0.918,0.637-1.582,1.113s-1.309,0.855-1.934,1.137
		c-0.734,0.359-1.578,0.66-2.531,0.902s-2.07,0.363-3.352,0.363c-2.359,0-4.359-0.781-6-2.344s-2.461-3.555-2.461-5.977
		c0-1.984,0.426-3.59,1.277-4.816s2.066-2.191,3.645-2.895c1.594-0.703,3.508-1.18,5.742-1.43s4.633-0.438,7.195-0.563v-0.68
		c0-1-0.176-1.828-0.527-2.484s-0.855-1.172-1.512-1.547c-0.625-0.359-1.375-0.602-2.25-0.727s-1.789-0.188-2.742-0.188
		c-1.156,0-2.445,0.152-3.867,0.457s-2.891,0.746-4.406,1.324h-0.234v-4.477c0.859-0.234,2.102-0.492,3.727-0.773
		s3.227-0.422,4.805-0.422c1.844,0,3.449,0.152,4.816,0.457s2.551,0.824,3.551,1.559c0.984,0.719,1.734,1.648,2.25,2.789
		s0.773,2.555,0.773,4.242V517z M322.882,510.555v-7.289c-1.344,0.078-2.926,0.195-4.746,0.352s-3.262,0.383-4.324,0.68
		c-1.266,0.359-2.289,0.918-3.07,1.676s-1.172,1.801-1.172,3.129c0,1.5,0.453,2.629,1.359,3.387s2.289,1.137,4.148,1.137
		c1.547,0,2.961-0.301,4.242-0.902S321.788,511.398,322.882,510.555z"/>
	<path d="M340.202,517h-4.406v-36.469h4.406V517z"/>
</g>
</svg>
